<svg width="35" height="35" viewBox="0 0 35 35" fill="none" xmlns="http://www.w3.org/2000/svg">
<g clip-path="url(#clip0_7_46)">
<path d="M4.10724 8.14123C6.35538 8.14123 8.17785 6.31876 8.17785 4.07062C8.17785 1.82248 6.35538 0 4.10724 0C1.8591 0 0.0366211 1.82248 0.0366211 4.07062C0.0366211 6.31876 1.8591 8.14123 4.10724 8.14123Z" fill="white"/>
<path d="M30.9171 8.14123C33.1652 8.14123 34.9877 6.31876 34.9877 4.07062C34.9877 1.82248 33.1652 0 30.9171 0C28.6689 0 26.8464 1.82248 26.8464 4.07062C26.8464 6.31876 28.6689 8.14123 30.9171 8.14123Z" fill="white"/>
<path d="M17.5123 8.14123C19.7604 8.14123 21.5829 6.31876 21.5829 4.07062C21.5829 1.82248 19.7604 0 17.5123 0C15.2641 0 13.4417 1.82248 13.4417 4.07062C13.4417 6.31876 15.2641 8.14123 17.5123 8.14123Z" fill="white"/>
<path d="M4.0829 21.5707C6.33108 21.5707 8.15359 19.7482 8.15359 17.5C8.15359 15.2519 6.33108 13.4294 4.0829 13.4294C1.83472 13.4294 0.012207 15.2519 0.012207 17.5C0.012207 19.7482 1.83472 21.5707 4.0829 21.5707Z" fill="white"/>
<path d="M30.8927 21.5707C33.1409 21.5707 34.9634 19.7482 34.9634 17.5C34.9634 15.2519 33.1409 13.4294 30.8927 13.4294C28.6445 13.4294 26.822 15.2519 26.822 17.5C26.822 19.7482 28.6445 21.5707 30.8927 21.5707Z" fill="white"/>
<path d="M17.4879 21.5707C19.7361 21.5707 21.5586 19.7482 21.5586 17.5C21.5586 15.2519 19.7361 13.4294 17.4879 13.4294C15.2397 13.4294 13.4172 15.2519 13.4172 17.5C13.4172 19.7482 15.2397 21.5707 17.4879 21.5707Z" fill="white"/>
<path d="M4.08282 35C6.33096 35 8.15344 33.1775 8.15344 30.9294C8.15344 28.6812 6.33096 26.8588 4.08282 26.8588C1.83468 26.8588 0.012207 28.6812 0.012207 30.9294C0.012207 33.1775 1.83468 35 4.08282 35Z" fill="white"/>
<path d="M30.8926 35C33.1408 35 34.9633 33.1775 34.9633 30.9294C34.9633 28.6812 33.1408 26.8588 30.8926 26.8588C28.6445 26.8588 26.822 28.6812 26.822 30.9294C26.822 33.1775 28.6445 35 30.8926 35Z" fill="white"/>
<path d="M17.4879 35C19.736 35 21.5585 33.1775 21.5585 30.9294C21.5585 28.6812 19.736 26.8588 17.4879 26.8588C15.2397 26.8588 13.4172 28.6812 13.4172 30.9294C13.4172 33.1775 15.2397 35 17.4879 35Z" fill="white"/>
</g>
<defs>
<clipPath id="clip0_7_46">
<rect width="35" height="35" fill="white"/>
</clipPath>
</defs>
</svg>
