<svg width="50" height="50" viewBox="0 0 50 50" fill="none" xmlns="http://www.w3.org/2000/svg">
<path d="M4.04063 4.04063C4.62665 3.45479 5.42137 3.12568 6.25 3.12568C7.07864 3.12568 7.87336 3.45479 8.45938 4.04063L25 20.5813L41.5406 4.04063C41.8289 3.74217 42.1737 3.5041 42.555 3.34032C42.9363 3.17654 43.3463 3.09033 43.7612 3.08673C44.1762 3.08312 44.5877 3.16219 44.9717 3.31932C45.3558 3.47644 45.7047 3.70849 45.9981 4.0019C46.2915 4.29531 46.5236 4.64423 46.6807 5.02828C46.8378 5.41233 46.9169 5.82383 46.9133 6.23876C46.9097 6.6537 46.8235 7.06376 46.6597 7.44502C46.4959 7.82629 46.2578 8.17111 45.9594 8.45938L29.4188 25L45.9594 41.5406C46.5286 42.13 46.8436 42.9194 46.8365 43.7388C46.8294 44.5581 46.5007 45.3419 45.9213 45.9213C45.3419 46.5007 44.5581 46.8294 43.7388 46.8365C42.9194 46.8436 42.13 46.5286 41.5406 45.9594L25 29.4188L8.45938 45.9594C7.87 46.5286 7.08062 46.8436 6.26125 46.8365C5.44189 46.8294 4.6581 46.5007 4.0787 45.9213C3.4993 45.3419 3.17064 44.5581 3.16352 43.7388C3.1564 42.9194 3.47139 42.13 4.04063 41.5406L20.5813 25L4.04063 8.45938C3.45478 7.87336 3.12567 7.07865 3.12567 6.25001C3.12567 5.42137 3.45478 4.62666 4.04063 4.04063Z" fill="white"/>
</svg>
